<?xml version="1.0" standalone="no"?>
<!DOCTYPE svg PUBLIC "-//W3C//DTD SVG 20010904//EN"
 "http://www.w3.org/TR/2001/REC-SVG-20010904/DTD/svg10.dtd">
<svg version="1.0" xmlns="http://www.w3.org/2000/svg"
 width="198.000000pt" height="198.000000pt" viewBox="0 0 198.000000 198.000000"
 preserveAspectRatio="xMidYMid meet">

<g transform="translate(0.000000,198.000000) scale(0.100000,-0.100000)"
fill="#000000" stroke="none">
<path d="M800 1640 c-18 -6 -9 -8 35 -8 44 0 53 2 35 8 -14 4 -29 8 -35 8 -5
0 -21 -4 -35 -8z"/>
<path d="M665 1581 c-44 -10 -73 -20 -65 -24 13 -5 13 -7 0 -16 -22 -15 -12
-14 55 10 38 13 70 18 91 14 18 -3 35 -1 39 5 12 20 37 11 33 -12 -2 -18 -9
-22 -27 -20 -36 4 -114 -25 -161 -59 -23 -17 -40 -33 -37 -35 3 -3 48 12 101
32 94 36 97 36 117 18 14 -12 18 -26 14 -43 -6 -31 10 -66 19 -41 3 8 7 30 8
49 5 56 24 59 128 17 51 -20 94 -35 97 -33 2 3 -13 19 -34 36 -39 32 -131 65
-156 56 -20 -8 -44 22 -28 38 8 8 16 9 29 0 10 -6 30 -9 43 -6 14 2 51 -5 84
-16 32 -11 61 -19 63 -16 3 3 0 5 -8 5 -9 0 -10 3 -2 13 18 21 -154 53 -201
38 -26 -9 -42 -9 -56 -2 -25 14 -48 13 -146 -8z"/>
<path d="M1098 1523 c7 -3 16 -2 19 1 4 3 -2 6 -13 5 -11 0 -14 -3 -6 -6z"/>
<path d="M695 1433 c-49 -12 -113 -48 -102 -59 1 -1 27 3 57 10 67 16 123 43
115 56 -4 6 -7 10 -8 9 -1 -1 -29 -8 -62 -16z"/>
<path d="M910 1439 c0 -15 48 -41 92 -50 24 -6 51 -12 61 -15 25 -8 21 13 -8
32 -28 18 -145 45 -145 33z"/>
<path d="M790 1421 c-7 -15 -7 -21 0 -21 12 0 25 28 17 36 -3 3 -10 -4 -17
-15z"/>
<path d="M860 1433 c0 -13 29 -38 35 -31 3 3 -4 13 -15 23 -11 10 -20 13 -20
8z"/>
<path d="M770 1367 c-29 -13 -41 -27 -34 -39 7 -12 64 23 64 39 0 7 -1 13 -2
12 -2 0 -14 -6 -28 -12z"/>
<path d="M870 1366 c0 -12 31 -31 55 -35 24 -3 7 22 -22 34 -27 11 -33 12 -33
1z"/>
<path d="M441 1333 c-34 -41 -39 -68 -16 -77 21 -8 19 -46 -2 -46 -9 0 -24 7
-34 16 -44 40 -67 -24 -50 -142 16 -109 26 -123 26 -36 0 74 17 142 36 142 5
0 9 -9 9 -20 0 -17 3 -19 19 -10 11 5 27 7 35 4 19 -7 21 7 5 23 -6 6 -9 22
-6 35 4 13 7 28 8 33 1 6 7 34 14 63 15 65 1 70 -44 15z"/>
<path d="M1180 1358 c0 -7 8 -45 18 -85 11 -41 15 -78 10 -85 -12 -19 -10 -30
5 -25 6 2 20 0 30 -5 13 -7 17 -4 17 12 0 11 5 20 11 20 19 0 39 -69 40 -137
1 -106 21 -40 23 74 1 103 -10 129 -42 100 -24 -22 -51 -22 -59 0 -4 11 1 22
15 31 29 19 28 25 -14 72 -37 41 -54 50 -54 28z"/>
<path d="M645 1350 c-12 -4 -27 -15 -34 -24 -20 -24 4 -20 59 9 38 20 41 24
20 24 -14 0 -34 -4 -45 -9z"/>
<path d="M1005 1335 c43 -27 65 -31 65 -14 0 12 -61 39 -87 39 -12 -1 -4 -10
22 -25z"/>
<path d="M770 1301 c-21 -17 -22 -20 -7 -21 12 0 16 -5 11 -12 -4 -7 1 -6 11
3 9 9 15 24 13 34 -3 16 -5 16 -28 -4z"/>
<path d="M875 1311 c-3 -6 0 -19 7 -30 11 -15 15 -16 25 -6 9 10 8 17 -7 30
-12 11 -20 13 -25 6z"/>
<path d="M527 1267 c-4 -24 0 -36 15 -50 24 -20 37 -15 18 8 -21 26 -2 30 21
4 16 -18 19 -20 15 -6 -3 10 -6 24 -6 31 0 6 -13 19 -29 29 l-29 17 -5 -33z"/>
<path d="M1108 1281 c-16 -9 -28 -26 -30 -43 l-5 -28 24 22 c25 23 29 19 12
-13 -10 -19 -9 -20 11 -9 27 14 34 33 23 63 -8 22 -9 22 -35 8z"/>
<path d="M677 1282 c-3 -4 -1 -25 3 -47 4 -22 8 -38 9 -35 0 3 5 19 10 35 6
22 4 34 -5 43 -7 6 -15 8 -17 4z"/>
<path d="M980 1279 c0 -6 -7 -8 -16 -5 -13 5 -14 3 -7 -6 6 -7 15 -26 21 -43
10 -29 10 -29 11 -5 1 14 4 35 7 48 4 13 2 22 -5 22 -6 0 -11 -5 -11 -11z"/>
<path d="M522 1128 c21 -39 27 -43 67 -46 37 -3 42 -6 38 -23 -7 -27 6 -32 26
-8 22 25 21 42 -3 70 l-19 24 -1 -22 c0 -16 -8 -25 -25 -29 -34 -8 -68 21 -62
53 3 19 0 23 -20 23 l-24 0 23 -42z"/>
<path d="M1137 1147 c5 -27 -27 -60 -54 -55 -9 2 -23 13 -29 26 -9 17 -13 20
-21 10 -23 -29 -24 -57 -4 -77 21 -21 25 -20 22 12 -2 14 6 17 38 17 32 0 43
5 59 28 32 47 34 62 8 62 -19 0 -22 -4 -19 -23z"/>
<path d="M442 1113 c2 -9 22 -24 45 -34 l43 -18 -35 34 c-37 38 -58 45 -53 18z"/>
<path d="M1184 1099 l-29 -30 30 11 c34 13 55 29 55 41 0 19 -27 8 -56 -22z"/>
<path d="M420 1030 c12 -22 41 -33 64 -24 15 6 14 8 -6 18 -13 7 -33 15 -46
18 -19 5 -20 3 -12 -12z"/>
<path d="M1237 1043 c-10 -3 -29 -10 -43 -18 l-25 -12 23 -6 c23 -6 68 16 68
33 0 6 -1 9 -2 9 -2 -1 -11 -3 -21 -6z"/>
<path d="M1207 982 c-23 -3 -26 -6 -16 -18 15 -19 35 -18 43 2 8 20 8 20 -27
16z"/>
<path d="M440 971 c0 -15 16 -22 34 -15 25 9 19 24 -9 24 -14 0 -25 -4 -25 -9z"/>
<path d="M360 912 c0 -10 -7 -28 -16 -40 -16 -23 -16 -23 17 -20 26 2 35 9 39
28 5 19 16 26 55 36 l50 12 -72 1 c-64 1 -73 -1 -73 -17z"/>
<path d="M1217 917 c48 -14 53 -18 57 -44 2 -12 13 -19 34 -21 l31 -3 -17 40
-17 41 -65 -1 -65 -1 42 -11z"/>
<path d="M470 865 c6 -16 13 -36 15 -43 3 -9 17 -3 45 20 48 40 54 61 6 25
l-33 -26 -21 27 -22 27 10 -30z"/>
<path d="M1100 883 c0 -8 75 -73 84 -73 7 0 27 73 22 78 -3 2 -11 -8 -18 -22
l-14 -26 -34 25 c-37 27 -40 29 -40 18z"/>
<path d="M1533 853 c4 -3 1 -13 -5 -22 -8 -10 -4 -9 10 3 26 23 27 26 5 26 -9
0 -13 -3 -10 -7z"/>
<path d="M1478 807 c-11 -9 -14 -18 -7 -28 7 -12 9 -11 9 3 0 9 8 22 18 27 9
6 13 10 7 10 -5 0 -18 -5 -27 -12z"/>
<path d="M1420 780 c-8 -5 -10 -10 -5 -10 6 0 17 5 25 10 8 5 11 10 5 10 -5 0
-17 -5 -25 -10z"/>
<path d="M1360 763 c-8 -2 -21 -7 -29 -9 -8 -2 -12 -7 -9 -9 3 -3 22 1 44 9
35 13 30 21 -6 9z"/>
<path d="M1451 724 c-5 -22 -13 -52 -17 -69 -3 -16 -13 -36 -22 -42 -9 -7 -12
-16 -9 -20 4 -4 12 -2 18 4 11 11 51 155 44 161 -2 2 -8 -13 -14 -34z"/>
<path d="M706 722 c-3 -5 7 -15 23 -22 33 -13 63 -43 59 -56 -1 -5 9 -20 22
-34 l25 -25 25 23 c14 13 27 33 30 45 3 13 22 30 44 41 52 26 34 44 -28 26
-43 -12 -104 -10 -167 6 -15 3 -29 1 -33 -4z"/>
<path d="M1266 695 c4 -8 8 -15 10 -15 2 0 4 7 4 15 0 8 -4 15 -10 15 -5 0 -7
-7 -4 -15z"/>
<path d="M1291 679 c-6 -18 -11 -37 -10 -43 0 -6 7 7 15 28 8 22 12 41 10 43
-2 2 -9 -10 -15 -28z"/>
<path d="M1566 673 c-6 -14 -9 -15 -15 -4 -7 10 -9 9 -14 -3 -5 -12 0 -15 18
-14 17 2 25 8 25 20 0 23 -6 23 -14 1z"/>
<path d="M1028 631 c2 -16 -1 -38 -7 -49 -7 -13 -7 -23 -2 -27 13 -7 26 84 14
96 -6 6 -8 -1 -5 -20z"/>
<path d="M1317 641 c-4 -17 -3 -21 5 -13 5 5 8 16 6 23 -3 8 -7 3 -11 -10z"/>
<path d="M1482 648 c2 -6 10 -14 16 -16 7 -2 10 2 6 12 -7 18 -28 22 -22 4z"/>
<path d="M1118 568 c-12 -45 -14 -66 -6 -73 7 -7 9 -5 6 5 -3 8 1 37 9 63 8
27 13 53 11 58 -2 6 -11 -18 -20 -53z"/>
<path d="M1216 608 c-8 -32 -7 -66 2 -71 4 -3 7 17 8 44 1 54 -1 60 -10 27z"/>
<path d="M1270 608 c1 -14 24 -48 33 -48 3 0 -1 14 -9 30 -16 32 -24 38 -24
18z"/>
<path d="M1071 594 c0 -11 3 -14 6 -6 3 7 2 16 -1 19 -3 4 -6 -2 -5 -13z"/>
<path d="M934 574 c-2 -28 -1 -28 15 4 9 17 9 22 -1 22 -7 0 -14 -12 -14 -26z"/>
<path d="M1255 570 c-3 -5 -1 -10 4 -10 6 0 11 5 11 10 0 6 -2 10 -4 10 -3 0
-8 -4 -11 -10z"/>
<path d="M1061 554 c0 -11 3 -14 6 -6 3 7 2 16 -1 19 -3 4 -6 -2 -5 -13z"/>
<path d="M740 538 c-10 -22 -10 -22 4 -4 17 21 22 15 29 -39 4 -28 4 -27 6 6
1 48 -23 71 -39 37z"/>
<path d="M1160 530 c0 -5 5 -10 11 -10 5 0 7 5 4 10 -3 6 -8 10 -11 10 -2 0
-4 -4 -4 -10z"/>
<path d="M1047 517 c-4 -10 -7 -26 -7 -35 1 -15 2 -15 11 1 6 10 9 25 7 35 -3
16 -4 15 -11 -1z"/>
<path d="M876 478 c-10 -40 -7 -58 12 -58 13 0 14 2 3 9 -9 6 -11 18 -6 40 8
35 0 43 -9 9z"/>
<path d="M676 466 c-7 -27 8 -76 23 -76 5 0 3 12 -4 27 -8 15 -12 38 -9 50 4
13 4 23 1 23 -3 0 -8 -11 -11 -24z"/>
<path d="M651 419 c-1 -48 16 -76 41 -66 8 4 7 6 -4 6 -17 1 -24 17 -31 76 -3
20 -4 15 -6 -16z"/>
<path d="M793 415 c-7 -20 0 -27 21 -19 9 3 16 13 16 22 0 13 -3 12 -16 -4
-13 -16 -15 -16 -10 -1 7 21 -2 23 -11 2z"/>
</g>
</svg>
