<?xml version="1.0" standalone="no"?>
<!DOCTYPE svg PUBLIC "-//W3C//DTD SVG 20010904//EN"
 "http://www.w3.org/TR/2001/REC-SVG-20010904/DTD/svg10.dtd">
<svg version="1.0" xmlns="http://www.w3.org/2000/svg"
 width="198.000000pt" height="198.000000pt" viewBox="0 0 198.000000 198.000000"
 preserveAspectRatio="xMidYMid meet">

<g transform="translate(0.000000,198.000000) scale(0.100000,-0.100000)"
fill="#000000" stroke="none">
<path d="M958 1392 c12 -2 22 -8 22 -13 0 -5 -3 -8 -7 -8 -21 3 -41 -2 -59
-17 -19 -15 -19 -16 1 -9 36 12 117 15 137 4 11 -6 22 -8 25 -5 8 7 -59 36
-69 30 -5 -3 -8 -1 -8 5 0 5 10 11 23 13 12 2 -3 4 -33 4 -30 0 -45 -2 -32 -4z"/>
<path d="M908 1383 c7 -3 16 -2 19 1 4 3 -2 6 -13 5 -11 0 -14 -3 -6 -6z"/>
<path d="M1058 1383 c7 -3 16 -2 19 1 4 3 -2 6 -13 5 -11 0 -14 -3 -6 -6z"/>
<path d="M923 1330 c-28 -12 -29 -16 -2 -23 12 -3 18 -3 15 0 -3 3 2 12 12 19
20 15 7 17 -25 4z"/>
<path d="M976 1332 c-2 -4 4 -8 14 -8 10 0 16 4 14 8 -3 4 -9 8 -14 8 -5 0
-11 -4 -14 -8z"/>
<path d="M1025 1332 c6 -5 21 -13 35 -17 17 -5 22 -4 15 3 -5 5 -21 13 -35 17
-17 5 -22 4 -15 -3z"/>
<path d="M832 1293 c-5 -10 -7 -24 -5 -31 3 -9 -2 -12 -13 -10 -16 2 -19 -4
-21 -37 l-2 -40 12 31 c7 17 17 29 24 27 7 -3 15 10 19 32 7 41 0 56 -14 28z"/>
<path d="M955 1300 c-3 -6 1 -7 9 -4 18 7 21 14 7 14 -6 0 -13 -4 -16 -10z"/>
<path d="M1000 1306 c0 -2 7 -7 16 -10 8 -3 12 -2 9 4 -6 10 -25 14 -25 6z"/>
<path d="M1130 1295 c0 -34 12 -66 24 -62 6 2 16 -10 23 -27 l12 -31 -2 40
c-2 33 -5 39 -21 37 -13 -3 -17 1 -13 11 3 8 -1 23 -8 34 -14 17 -14 17 -15
-2z"/>
<path d="M870 1264 c0 -8 5 -12 10 -9 6 4 8 11 5 16 -9 14 -15 11 -15 -7z"/>
<path d="M1095 1271 c-3 -5 -1 -12 5 -16 5 -3 10 1 10 9 0 18 -6 21 -15 7z"/>
<path d="M860 1223 c0 -6 8 -17 18 -24 16 -13 16 -13 2 6 -8 11 -16 22 -17 24
-2 2 -3 0 -3 -6z"/>
<path d="M1101 1207 c-13 -21 -12 -21 5 -5 10 10 16 20 13 22 -3 3 -11 -5 -18
-17z"/>
<path d="M905 1201 c-3 -5 -1 -12 5 -16 5 -3 10 1 10 9 0 18 -6 21 -15 7z"/>
<path d="M1060 1195 c0 -8 5 -15 10 -15 6 0 10 7 10 15 0 8 -4 15 -10 15 -5 0
-10 -7 -10 -15z"/>
<path d="M800 1121 c-7 -15 -7 -21 0 -21 12 0 25 28 17 36 -3 3 -10 -4 -17
-15z"/>
<path d="M1160 1128 c0 -9 5 -20 11 -23 17 -11 20 0 4 21 -13 17 -14 17 -15 2z"/>
<path d="M959 1033 c9 -12 23 -22 31 -22 8 0 22 10 31 22 16 22 16 22 -31 22
-47 0 -47 0 -31 -22z"/>
<path d="M1549 973 c10 -4 8 -9 -10 -19 -13 -7 -19 -13 -13 -14 7 0 22 9 35
20 l24 19 -25 0 c-14 0 -19 -3 -11 -6z"/>
<path d="M1490 945 c-7 -8 -18 -15 -25 -15 -7 0 -12 -6 -12 -12 3 -24 -93
-198 -108 -198 -8 0 -15 -7 -15 -15 0 -36 40 9 83 94 58 113 69 131 83 131 6
0 11 7 11 15 0 8 -1 15 -2 15 -2 0 -8 -7 -15 -15z"/>
<path d="M1320 910 c-30 -4 -50 -8 -45 -9 18 -5 89 0 125 9 34 8 34 8 5 7 -16
0 -55 -3 -85 -7z"/>
<path d="M863 874 c27 -8 21 -57 -10 -95 -16 -18 -22 -29 -14 -24 11 6 13 4 7
-11 -20 -48 -14 -44 14 11 35 69 37 119 5 122 -16 1 -16 1 -2 -3z"/>
<path d="M1164 848 c-28 -32 -28 -32 -1 -9 30 27 36 18 11 -17 -8 -12 -13 -22
-9 -22 6 0 45 62 45 73 0 15 -17 6 -46 -25z"/>
<path d="M1199 803 c-52 -91 -70 -132 -41 -94 19 23 19 23 25 2 3 -11 11 -21
17 -21 10 0 10 4 0 15 -7 9 -10 18 -7 22 4 3 3 11 -2 17 -6 7 3 32 25 70 19
32 33 60 31 62 -2 2 -23 -31 -48 -73z"/>
<path d="M926 808 c-3 -18 -22 -59 -41 -91 -41 -69 -44 -79 -10 -47 13 12 22
26 20 31 -3 4 4 23 15 42 25 42 42 97 30 97 -4 0 -11 -15 -14 -32z"/>
<path d="M423 798 c-40 -44 -64 -106 -61 -156 3 -44 5 -47 33 -49 19 -1 22 0
10 4 -11 3 -23 10 -27 17 -22 32 9 135 54 184 12 12 19 22 16 22 -2 0 -14 -10
-25 -22z"/>
<path d="M494 812 c4 -6 2 -13 -4 -17 -5 -3 -10 -11 -10 -16 0 -6 7 -3 16 5 8
9 20 16 25 16 15 0 10 -53 -11 -98 -11 -23 -15 -40 -10 -37 16 10 42 91 38
121 -2 22 -9 30 -27 32 -14 2 -21 0 -17 -6z"/>
<path d="M723 798 c-21 -24 -64 -91 -47 -73 6 6 23 27 38 48 29 40 46 44 26 7
-8 -15 -8 -20 -1 -16 6 4 11 0 11 -8 0 -9 8 -16 18 -16 14 0 15 2 2 10 -13 8
-13 13 3 41 14 25 15 29 2 19 -10 -8 -15 -9 -15 -1 0 17 -15 13 -37 -11z"/>
<path d="M992 803 c-6 -3 -10 -9 -7 -14 4 -5 -5 -28 -19 -52 -26 -44 -34 -87
-16 -87 5 0 7 6 4 14 -3 8 9 42 26 76 32 64 34 70 12 63z"/>
<path d="M1118 788 c-37 -59 -48 -132 -17 -112 8 4 7 9 -2 15 -11 6 -8 19 14
64 28 57 30 72 5 33z"/>
<path d="M1580 794 c0 -8 5 -12 10 -9 6 3 10 10 10 16 0 5 -4 9 -10 9 -5 0
-10 -7 -10 -16z"/>
<path d="M1228 775 c-4 -20 -3 -23 8 -14 16 13 19 39 5 39 -5 0 -11 -11 -13
-25z"/>
<path d="M1483 788 c1 -7 -3 -12 -10 -11 -15 3 -36 -33 -28 -47 9 -15 25 -12
19 3 -2 7 4 22 16 32 22 20 26 35 10 35 -5 0 -9 -6 -7 -12z"/>
<path d="M1532 777 c-22 -23 -29 -47 -14 -47 6 1 44 70 37 70 -1 0 -11 -10
-23 -23z"/>
<path d="M420 758 c-23 -38 -24 -118 -2 -126 11 -3 12 0 3 16 -16 30 -14 63 8
105 23 46 18 48 -9 5z"/>
<path d="M1145 770 c3 -5 8 -10 11 -10 2 0 4 5 4 10 0 6 -5 10 -11 10 -5 0 -7
-4 -4 -10z"/>
<path d="M1557 763 c-10 -9 -9 -33 1 -33 4 0 8 9 8 20 0 23 0 22 -9 13z"/>
<path d="M1032 720 c-15 -24 -16 -50 -1 -50 5 0 7 4 4 10 -3 5 -1 19 5 31 15
27 8 34 -8 9z"/>
<path d="M648 683 c-14 -29 -13 -63 2 -63 4 0 6 9 3 19 -3 10 0 29 7 41 6 12
9 24 7 26 -3 3 -11 -7 -19 -23z"/>
<path d="M790 690 c-6 -11 -8 -20 -6 -20 3 0 10 9 16 20 6 11 8 20 6 20 -3 0
-10 -9 -16 -20z"/>
<path d="M593 675 c0 -8 4 -12 9 -9 4 3 8 9 8 15 0 5 -4 9 -8 9 -5 0 -9 -7 -9
-15z"/>
<path d="M542 648 c-15 -15 -16 -38 -1 -38 5 0 7 5 4 10 -4 6 -1 17 5 25 15
18 9 20 -8 3z"/>
<path d="M770 650 c0 -5 5 -10 11 -10 5 0 7 5 4 10 -3 6 -8 10 -11 10 -2 0 -4
-4 -4 -10z"/>
<path d="M567 636 c-6 -14 0 -26 13 -26 3 0 6 9 6 20 0 23 -11 27 -19 6z"/>
<path d="M455 630 c-16 -7 -17 -9 -3 -9 9 -1 20 4 23 9 7 11 7 11 -20 0z"/>
</g>
</svg>
